HIERARCHY
ROOT Hips
{
 OFFSET 0.000000 0.000000 0.000000
 CHANNELS 6 Xposition Yposition Zposition Yrotation Xrotation Zrotation
 JOINT Chest
 {
  OFFSET 0.000000 9.585900 0.002600
  CHANNELS 3 Yrotation Xrotation Zrotation
  JOINT Chest2
  {
   OFFSET 0.000000 9.601200 -0.005300
   CHANNELS 3 Yrotation Xrotation Zrotation
   JOINT Chest3
   {
    OFFSET 0.000000 9.561800 0.000000
    CHANNELS 3 Yrotation Xrotation Zrotation
    JOINT Chest4
    {
     OFFSET 0.000000 9.552100 0.000000
     CHANNELS 3 Yrotation Xrotation Zrotation
     JOINT Neck
     {
      OFFSET 0.000000 14.453000 0.000000
      CHANNELS 3 Yrotation Xrotation Zrotation
      JOINT Head
      {
       OFFSET 0.000000 8.936500 -0.011300
       CHANNELS 3 Yrotation Xrotation Zrotation
       End Site
       {
        OFFSET 0.000000 17.073600 -0.006000
       }
      }
     }
     JOINT RightCollar
     {
      OFFSET -2.921100 9.558500 0.000000
      CHANNELS 3 Yrotation Xrotation Zrotation
      JOINT RightShoulder
      {
       OFFSET -13.519700 0.000000 0.000000
       CHANNELS 3 Yrotation Xrotation Zrotation
       JOINT RightElbow
       {
        OFFSET 0.000000 -29.696600 0.000000
        CHANNELS 3 Yrotation Xrotation Zrotation
        JOINT RightWrist
        {
         OFFSET 0.000000 -24.004700 0.000000
         CHANNELS 3 Yrotation Xrotation Zrotation
         End Site
         {
          OFFSET 0.000000 -17.728500 0.000000
         }
        }
       }
      }
     }
     JOINT LeftCollar
     {
      OFFSET 2.921100 9.558500 0.000000
      CHANNELS 3 Yrotation Xrotation Zrotation
      JOINT LeftShoulder
      {
       OFFSET 13.519700 0.000000 0.000000
       CHANNELS 3 Yrotation Xrotation Zrotation
       JOINT LeftElbow
       {
        OFFSET 0.000000 -29.696600 0.000000
        CHANNELS 3 Yrotation Xrotation Zrotation
        JOINT LeftWrist
        {
         OFFSET 0.000000 -24.004700 0.000000
         CHANNELS 3 Yrotation Xrotation Zrotation
         End Site
         {
          OFFSET 0.000000 -17.728500 0.000000
         }
        }
       }
      }
     }
    }
   }
  }
 }
 JOINT RightHip
 {
  OFFSET -7.771700 -0.012900 -0.001300
  CHANNELS 3 Yrotation Xrotation Zrotation
  JOINT RightKnee
  {
   OFFSET 0.000000 -40.869800 0.001200
   CHANNELS 3 Yrotation Xrotation Zrotation
   JOINT RightAnkle
   {
    OFFSET 0.000000 -39.717900 0.002100
    CHANNELS 3 Yrotation Xrotation Zrotation
    JOINT RightToe
    {
     OFFSET 0.000000 -4.965400 11.033500
     CHANNELS 3 Yrotation Xrotation Zrotation
     End Site
     {
      OFFSET 0.000000 -1.423100 5.872300
     }
    }
   }
  }
 }
 JOINT LeftHip
 {
  OFFSET 7.771700 -0.012900 -0.001300
  CHANNELS 3 Yrotation Xrotation Zrotation
  JOINT LeftKnee
  {
   OFFSET 0.000000 -40.869800 0.001200
   CHANNELS 3 Yrotation Xrotation Zrotation
   JOINT LeftAnkle
   {
    OFFSET 0.000000 -39.717900 0.002100
    CHANNELS 3 Yrotation Xrotation Zrotation
    JOINT LeftToe
    {
     OFFSET 0.000000 -4.965400 11.033500
     CHANNELS 3 Yrotation Xrotation Zrotation
     End Site
     {
      OFFSET 0.000000 -1.423100 5.872300
     }
    }
   }
  }
 }
}
MOTION
Frames: 5
Frame Time: 0.008333
-164.073212 49.272199 17.511186 173.289607 -29.723635 -3.625512 -0.144078 18.061187 2.728860 -0.049917 2.029917 0.268245 -0.122349 3.398513 0.448997 -0.196436 15.808953 2.083129 2.345224 16.938484 0.075872 4.261413 -4.236155 -0.619999 -2.646440 -1.312209 -3.480239 6.219039 -9.555851 -13.785546 -35.388046 -41.791685 87.490038 3.702169 7.790756 -16.220723 0.165055 -2.145636 2.059555 -9.363640 -3.744861 14.473170 73.097634 -77.201077 -109.722568 1.443018 10.239028 4.596843 -6.429033 -54.826352 -3.607663 -174.779535 84.481464 -161.594842 -30.117335 -2.577331 -4.674486 0.075038 -13.138315 -0.932822 -15.373263 -56.302842 22.660480 -76.993146 66.111886 -81.537021 30.525445 5.563779 14.287435 0.060126 -0.469691 0.013172
-164.078385 49.274131 17.520706 173.322909 -29.720179 -3.639102 -0.130691 18.038876 2.738004 -0.065462 2.033898 0.269259 -0.118614 3.383897 0.444506 -0.198016 15.794936 2.080585 2.004615 17.069556 0.021431 3.641114 -4.009891 -0.605313 -2.675740 -1.281067 -3.480063 6.202642 -9.551300 -13.770794 -35.384696 -41.770557 87.495006 3.678904 7.761187 -16.269162 0.163737 -2.104067 2.050149 -9.410168 -3.830413 14.523335 73.055194 -77.209867 -109.685698 1.460868 10.260584 4.580762 -6.455202 -54.837148 -3.572025 -174.531947 84.488264 -161.388907 -30.134913 -2.540586 -4.651298 0.102898 -13.140374 -0.933555 -15.417746 -56.304181 22.642634 -76.959564 66.124769 -81.485741 30.525594 5.588846 14.265008 0.054866 -0.471639 0.017346
-164.085224 49.276314 17.530597 173.358510 -29.719505 -3.644579 -0.132737 18.029099 2.733728 -0.087616 2.038871 0.271214 -0.061899 3.346032 0.439306 -0.227171 15.799607 2.085200 1.679154 17.196305 -0.050296 3.079036 -3.789610 -0.629996 -2.714243 -1.250991 -3.484715 6.198432 -9.548732 -13.753840 -35.395449 -41.741679 87.494974 3.691693 7.752344 -16.283724 0.140548 -2.068966 2.045246 -9.425962 -3.874970 14.555641 73.063970 -77.213150 -109.704978 1.418607 10.241777 4.539264 -6.482293 -54.850782 -3.535093 -174.477605 84.498422 -161.394602 -30.168131 -2.494273 -4.626619 0.102085 -13.145517 -0.921847 -15.452919 -56.304254 22.606006 -76.919000 66.141542 -81.432938 30.535675 5.610652 14.247726 0.052861 -0.472218 0.018373
-164.092396 49.278461 17.541605 173.413261 -29.716015 -3.658989 -0.155867 18.024035 2.726544 -0.084105 2.028253 0.270842 -0.073064 3.348643 0.440055 -0.220039 15.778672 2.083836 1.393648 17.317549 -0.134146 2.594091 -3.582469 -0.690708 -2.747183 -1.229331 -3.495939 6.189956 -9.552453 -13.732405 -35.401656 -41.726530 87.505490 3.687404 7.750254 -16.305136 0.121217 -2.036314 2.048251 -9.428908 -3.908197 14.571293 72.989529 -77.206093 -109.641674 1.364679 10.149059 4.469591 -6.517409 -54.854718 -3.542805 -174.422331 84.505051 -161.363340 -30.136831 -2.471924 -4.633674 0.103325 -13.146521 -0.911630 -15.509071 -56.305618 22.569094 -76.877045 66.154813 -81.378689 30.546971 5.627991 14.233610 0.047583 -0.466334 0.015298
-164.099437 49.280449 17.553814 173.417606 -29.711765 -3.651316 -0.137276 18.022584 2.721978 -0.083022 2.017477 0.269933 -0.092260 3.352451 0.442957 -0.210337 15.757791 2.077535 1.159465 17.428731 -0.225486 2.199083 -3.393158 -0.782062 -2.766457 -1.210129 -3.494370 6.184225 -9.572406 -13.729118 -35.405101 -41.709786 87.509374 3.686738 7.732049 -16.351384 0.091347 -1.994903 2.071622 -9.410091 -3.930719 14.561253 73.115366 -77.210161 -109.763381 1.373566 10.120206 4.439238 -6.477956 -54.871596 -3.547274 -174.238505 84.512866 -161.207191 -30.121209 -2.428821 -4.630236 0.107202 -13.147147 -0.895505 -15.530369 -56.310911 22.539106 -76.841648 66.171562 -81.337196 30.572594 5.650754 14.227887 0.027679 -0.474648 0.008198
